<mxfile host="app.diagrams.net" modified="2023-10-10T14:14:07.642Z" agent="Mozilla/5.0 (Windows NT 10.0; Win64; x64) AppleWebKit/537.36 (KHTML, like Gecko) Chrome/117.0.0.0 Safari/537.36" etag="UX3OTs7rTJQpFcPSoiPF" version="22.0.4" type="device">
  <diagram name="Page-1" id="ywodosIClRgnQJ2kmFf-">
    <mxGraphModel dx="6325" dy="1240" grid="1" gridSize="10" guides="1" tooltips="1" connect="1" arrows="1" fold="1" page="1" pageScale="1" pageWidth="850" pageHeight="1100" math="0" shadow="0">
      <root>
        <mxCell id="0" />
        <mxCell id="1" parent="0" />
        <mxCell id="-ONpWqrDWP2WbDjyrkQR-1" value="" style="edgeStyle=orthogonalEdgeStyle;rounded=0;orthogonalLoop=1;jettySize=auto;html=1;" parent="1" source="-ONpWqrDWP2WbDjyrkQR-2" target="-ONpWqrDWP2WbDjyrkQR-5" edge="1">
          <mxGeometry relative="1" as="geometry" />
        </mxCell>
        <mxCell id="-ONpWqrDWP2WbDjyrkQR-2" value="Start" style="ellipse;whiteSpace=wrap;html=1;fillColor=#b0e3e6;strokeColor=#0e8088;" parent="1" vertex="1">
          <mxGeometry x="580" y="1120" width="120" height="80" as="geometry" />
        </mxCell>
        <mxCell id="-ONpWqrDWP2WbDjyrkQR-3" value="" style="edgeStyle=orthogonalEdgeStyle;rounded=0;orthogonalLoop=1;jettySize=auto;html=1;" parent="1" target="-ONpWqrDWP2WbDjyrkQR-8" edge="1">
          <mxGeometry relative="1" as="geometry">
            <mxPoint x="640" y="1500" as="sourcePoint" />
          </mxGeometry>
        </mxCell>
        <mxCell id="-ONpWqrDWP2WbDjyrkQR-4" value="" style="edgeStyle=orthogonalEdgeStyle;rounded=0;orthogonalLoop=1;jettySize=auto;html=1;" parent="1" source="-ONpWqrDWP2WbDjyrkQR-5" target="-ONpWqrDWP2WbDjyrkQR-87" edge="1">
          <mxGeometry relative="1" as="geometry" />
        </mxCell>
        <mxCell id="-ONpWqrDWP2WbDjyrkQR-5" value="Username&lt;br&gt;Password" style="shape=parallelogram;perimeter=parallelogramPerimeter;whiteSpace=wrap;html=1;fixedSize=1;fillColor=#d5e8d4;strokeColor=#82b366;" parent="1" vertex="1">
          <mxGeometry x="580" y="1290" width="120" height="60" as="geometry" />
        </mxCell>
        <mxCell id="-ONpWqrDWP2WbDjyrkQR-6" value="" style="edgeStyle=orthogonalEdgeStyle;rounded=0;orthogonalLoop=1;jettySize=auto;html=1;entryX=0.5;entryY=0;entryDx=0;entryDy=0;" parent="1" source="-ONpWqrDWP2WbDjyrkQR-8" target="-ONpWqrDWP2WbDjyrkQR-20" edge="1">
          <mxGeometry relative="1" as="geometry" />
        </mxCell>
        <mxCell id="-ONpWqrDWP2WbDjyrkQR-7" style="edgeStyle=orthogonalEdgeStyle;rounded=0;orthogonalLoop=1;jettySize=auto;html=1;" parent="1" source="-ONpWqrDWP2WbDjyrkQR-8" target="-ONpWqrDWP2WbDjyrkQR-80" edge="1">
          <mxGeometry relative="1" as="geometry">
            <mxPoint x="895" y="1800" as="targetPoint" />
          </mxGeometry>
        </mxCell>
        <mxCell id="-ONpWqrDWP2WbDjyrkQR-8" value="Dashboard" style="whiteSpace=wrap;html=1;" parent="1" vertex="1">
          <mxGeometry x="580" y="1580" width="120" height="60" as="geometry" />
        </mxCell>
        <mxCell id="-ONpWqrDWP2WbDjyrkQR-9" value="" style="edgeStyle=orthogonalEdgeStyle;rounded=0;orthogonalLoop=1;jettySize=auto;html=1;" parent="1" source="-ONpWqrDWP2WbDjyrkQR-10" target="-ONpWqrDWP2WbDjyrkQR-12" edge="1">
          <mxGeometry relative="1" as="geometry" />
        </mxCell>
        <mxCell id="-ONpWqrDWP2WbDjyrkQR-10" value="Book Event" style="rounded=0;whiteSpace=wrap;html=1;" parent="1" vertex="1">
          <mxGeometry x="-1235" y="2050" width="120" height="60" as="geometry" />
        </mxCell>
        <mxCell id="-ONpWqrDWP2WbDjyrkQR-11" value="" style="edgeStyle=orthogonalEdgeStyle;rounded=0;orthogonalLoop=1;jettySize=auto;html=1;" parent="1" source="-ONpWqrDWP2WbDjyrkQR-12" target="-ONpWqrDWP2WbDjyrkQR-43" edge="1">
          <mxGeometry relative="1" as="geometry" />
        </mxCell>
        <mxCell id="-ONpWqrDWP2WbDjyrkQR-12" value="Name&lt;br&gt;Address&lt;br&gt;Phone&lt;br&gt;Email Address&lt;br&gt;Reservation Data&lt;br&gt;Reservation Time&lt;br&gt;No. of Peoples&lt;br&gt;" style="shape=parallelogram;perimeter=parallelogramPerimeter;whiteSpace=wrap;html=1;fixedSize=1;rounded=0;fillColor=#d5e8d4;strokeColor=#82b366;" parent="1" vertex="1">
          <mxGeometry x="-1250" y="2190" width="150" height="120" as="geometry" />
        </mxCell>
        <mxCell id="-ONpWqrDWP2WbDjyrkQR-13" value="" style="edgeStyle=orthogonalEdgeStyle;rounded=0;orthogonalLoop=1;jettySize=auto;html=1;" parent="1" source="-ONpWqrDWP2WbDjyrkQR-15" target="-ONpWqrDWP2WbDjyrkQR-10" edge="1">
          <mxGeometry relative="1" as="geometry" />
        </mxCell>
        <mxCell id="-ONpWqrDWP2WbDjyrkQR-14" style="edgeStyle=orthogonalEdgeStyle;rounded=0;orthogonalLoop=1;jettySize=auto;html=1;entryX=0.5;entryY=0;entryDx=0;entryDy=0;" parent="1" source="-ONpWqrDWP2WbDjyrkQR-15" target="-ONpWqrDWP2WbDjyrkQR-48" edge="1">
          <mxGeometry relative="1" as="geometry" />
        </mxCell>
        <mxCell id="-ONpWqrDWP2WbDjyrkQR-15" value="Events Calendar" style="rounded=0;whiteSpace=wrap;html=1;" parent="1" vertex="1">
          <mxGeometry x="-955" y="1890" width="120" height="60" as="geometry" />
        </mxCell>
        <mxCell id="-ONpWqrDWP2WbDjyrkQR-16" style="edgeStyle=orthogonalEdgeStyle;rounded=0;orthogonalLoop=1;jettySize=auto;html=1;entryX=0.5;entryY=0;entryDx=0;entryDy=0;" parent="1" source="-ONpWqrDWP2WbDjyrkQR-20" target="-ONpWqrDWP2WbDjyrkQR-25" edge="1">
          <mxGeometry relative="1" as="geometry" />
        </mxCell>
        <mxCell id="-ONpWqrDWP2WbDjyrkQR-17" style="edgeStyle=orthogonalEdgeStyle;rounded=0;orthogonalLoop=1;jettySize=auto;html=1;entryX=0.5;entryY=0;entryDx=0;entryDy=0;" parent="1" source="-ONpWqrDWP2WbDjyrkQR-20" target="-ONpWqrDWP2WbDjyrkQR-15" edge="1">
          <mxGeometry relative="1" as="geometry" />
        </mxCell>
        <mxCell id="-ONpWqrDWP2WbDjyrkQR-18" style="edgeStyle=orthogonalEdgeStyle;rounded=0;orthogonalLoop=1;jettySize=auto;html=1;entryX=0.5;entryY=0;entryDx=0;entryDy=0;" parent="1" source="-ONpWqrDWP2WbDjyrkQR-20" target="-ONpWqrDWP2WbDjyrkQR-28" edge="1">
          <mxGeometry relative="1" as="geometry" />
        </mxCell>
        <mxCell id="-ONpWqrDWP2WbDjyrkQR-19" style="edgeStyle=orthogonalEdgeStyle;rounded=0;orthogonalLoop=1;jettySize=auto;html=1;entryX=0.5;entryY=0;entryDx=0;entryDy=0;" parent="1" source="-ONpWqrDWP2WbDjyrkQR-20" target="-ONpWqrDWP2WbDjyrkQR-22" edge="1">
          <mxGeometry relative="1" as="geometry" />
        </mxCell>
        <mxCell id="-ONpWqrDWP2WbDjyrkQR-20" value="Left Panel" style="rounded=0;whiteSpace=wrap;html=1;" parent="1" vertex="1">
          <mxGeometry x="-205" y="1770" width="120" height="60" as="geometry" />
        </mxCell>
        <mxCell id="-ONpWqrDWP2WbDjyrkQR-21" value="" style="edgeStyle=orthogonalEdgeStyle;rounded=0;orthogonalLoop=1;jettySize=auto;html=1;" parent="1" source="-ONpWqrDWP2WbDjyrkQR-22" target="-ONpWqrDWP2WbDjyrkQR-40" edge="1">
          <mxGeometry relative="1" as="geometry" />
        </mxCell>
        <mxCell id="-ONpWqrDWP2WbDjyrkQR-22" value="Event Booking" style="rounded=0;whiteSpace=wrap;html=1;" parent="1" vertex="1">
          <mxGeometry x="450" y="1875" width="120" height="60" as="geometry" />
        </mxCell>
        <mxCell id="-ONpWqrDWP2WbDjyrkQR-23" value="" style="edgeStyle=orthogonalEdgeStyle;rounded=0;orthogonalLoop=1;jettySize=auto;html=1;" parent="1" source="-ONpWqrDWP2WbDjyrkQR-25" target="-ONpWqrDWP2WbDjyrkQR-39" edge="1">
          <mxGeometry relative="1" as="geometry" />
        </mxCell>
        <mxCell id="-ONpWqrDWP2WbDjyrkQR-24" style="edgeStyle=orthogonalEdgeStyle;rounded=0;orthogonalLoop=1;jettySize=auto;html=1;entryX=0.5;entryY=0;entryDx=0;entryDy=0;" parent="1" source="-ONpWqrDWP2WbDjyrkQR-25" target="-ONpWqrDWP2WbDjyrkQR-30" edge="1">
          <mxGeometry relative="1" as="geometry" />
        </mxCell>
        <mxCell id="-ONpWqrDWP2WbDjyrkQR-25" value="User Details" style="rounded=0;whiteSpace=wrap;html=1;" parent="1" vertex="1">
          <mxGeometry x="-540" y="1885" width="120" height="60" as="geometry" />
        </mxCell>
        <mxCell id="-ONpWqrDWP2WbDjyrkQR-26" value="" style="edgeStyle=orthogonalEdgeStyle;rounded=0;orthogonalLoop=1;jettySize=auto;html=1;" parent="1" source="-ONpWqrDWP2WbDjyrkQR-28" target="-ONpWqrDWP2WbDjyrkQR-35" edge="1">
          <mxGeometry relative="1" as="geometry" />
        </mxCell>
        <mxCell id="-ONpWqrDWP2WbDjyrkQR-27" value="" style="edgeStyle=orthogonalEdgeStyle;rounded=0;orthogonalLoop=1;jettySize=auto;html=1;" parent="1" source="-ONpWqrDWP2WbDjyrkQR-28" target="-ONpWqrDWP2WbDjyrkQR-38" edge="1">
          <mxGeometry relative="1" as="geometry" />
        </mxCell>
        <mxCell id="-ONpWqrDWP2WbDjyrkQR-28" value="Holidays" style="rounded=0;whiteSpace=wrap;html=1;" parent="1" vertex="1">
          <mxGeometry x="52.75" y="1875" width="120" height="60" as="geometry" />
        </mxCell>
        <mxCell id="-ONpWqrDWP2WbDjyrkQR-29" value="" style="edgeStyle=orthogonalEdgeStyle;rounded=0;orthogonalLoop=1;jettySize=auto;html=1;" parent="1" source="-ONpWqrDWP2WbDjyrkQR-30" target="-ONpWqrDWP2WbDjyrkQR-31" edge="1">
          <mxGeometry relative="1" as="geometry" />
        </mxCell>
        <mxCell id="-ONpWqrDWP2WbDjyrkQR-30" value="Create new User" style="whiteSpace=wrap;html=1;rounded=0;" parent="1" vertex="1">
          <mxGeometry x="-660" y="2040" width="120" height="60" as="geometry" />
        </mxCell>
        <mxCell id="-ONpWqrDWP2WbDjyrkQR-31" value="Name&lt;br&gt;Address&lt;br&gt;Email&lt;br&gt;Phone&lt;br&gt;User Role" style="shape=parallelogram;perimeter=parallelogramPerimeter;whiteSpace=wrap;html=1;fixedSize=1;rounded=0;fillColor=#d5e8d4;strokeColor=#82b366;" parent="1" vertex="1">
          <mxGeometry x="-680" y="2185" width="160" height="90" as="geometry" />
        </mxCell>
        <mxCell id="-ONpWqrDWP2WbDjyrkQR-32" value="" style="edgeStyle=orthogonalEdgeStyle;rounded=0;orthogonalLoop=1;jettySize=auto;html=1;" parent="1" source="-ONpWqrDWP2WbDjyrkQR-35" target="-ONpWqrDWP2WbDjyrkQR-37" edge="1">
          <mxGeometry relative="1" as="geometry" />
        </mxCell>
        <mxCell id="-ONpWqrDWP2WbDjyrkQR-33" value="" style="edgeStyle=orthogonalEdgeStyle;rounded=0;orthogonalLoop=1;jettySize=auto;html=1;" parent="1" source="-ONpWqrDWP2WbDjyrkQR-35" target="-ONpWqrDWP2WbDjyrkQR-37" edge="1">
          <mxGeometry relative="1" as="geometry" />
        </mxCell>
        <mxCell id="-ONpWqrDWP2WbDjyrkQR-34" value="" style="edgeStyle=orthogonalEdgeStyle;rounded=0;orthogonalLoop=1;jettySize=auto;html=1;" parent="1" source="-ONpWqrDWP2WbDjyrkQR-35" target="-ONpWqrDWP2WbDjyrkQR-37" edge="1">
          <mxGeometry relative="1" as="geometry" />
        </mxCell>
        <mxCell id="-ONpWqrDWP2WbDjyrkQR-35" value="Add Holiday" style="rounded=0;whiteSpace=wrap;html=1;" parent="1" vertex="1">
          <mxGeometry x="-57.25" y="2005" width="120" height="60" as="geometry" />
        </mxCell>
        <mxCell id="-ONpWqrDWP2WbDjyrkQR-36" value="" style="edgeStyle=orthogonalEdgeStyle;rounded=0;orthogonalLoop=1;jettySize=auto;html=1;entryX=0.5;entryY=0;entryDx=0;entryDy=0;" parent="1" source="-ONpWqrDWP2WbDjyrkQR-37" target="-ONpWqrDWP2WbDjyrkQR-70" edge="1">
          <mxGeometry relative="1" as="geometry">
            <mxPoint x="2.75" y="2275" as="targetPoint" />
          </mxGeometry>
        </mxCell>
        <mxCell id="-ONpWqrDWP2WbDjyrkQR-37" value="Holiday Date&lt;br&gt;Holiday Reason" style="shape=parallelogram;perimeter=parallelogramPerimeter;whiteSpace=wrap;html=1;fixedSize=1;rounded=0;fillColor=#d5e8d4;strokeColor=#82b366;" parent="1" vertex="1">
          <mxGeometry x="-57.25" y="2145" width="120" height="60" as="geometry" />
        </mxCell>
        <mxCell id="-ONpWqrDWP2WbDjyrkQR-38" value="Holiday Date&lt;br&gt;Holiday Reason&lt;br&gt;Action(&lt;b&gt;DELETE&lt;/b&gt;)" style="shape=parallelogram;perimeter=parallelogramPerimeter;whiteSpace=wrap;html=1;fixedSize=1;rounded=0;fillColor=#f8cecc;strokeColor=#b85450;" parent="1" vertex="1">
          <mxGeometry x="172.75" y="2005" width="120" height="60" as="geometry" />
        </mxCell>
        <mxCell id="-ONpWqrDWP2WbDjyrkQR-39" value="Name&lt;br style=&quot;border-color: var(--border-color);&quot;&gt;Address&lt;br style=&quot;border-color: var(--border-color);&quot;&gt;Email&lt;br style=&quot;border-color: var(--border-color);&quot;&gt;Phone&lt;br style=&quot;border-color: var(--border-color);&quot;&gt;User Role&lt;br&gt;Status&lt;br&gt;Action (&lt;b&gt;LOCK, DELETE&lt;/b&gt;)" style="shape=parallelogram;perimeter=parallelogramPerimeter;whiteSpace=wrap;html=1;fixedSize=1;rounded=0;fillColor=#f8cecc;strokeColor=#b85450;" parent="1" vertex="1">
          <mxGeometry x="-440" y="2040" width="170" height="130" as="geometry" />
        </mxCell>
        <mxCell id="-ONpWqrDWP2WbDjyrkQR-40" value="Name&lt;br&gt;Email&lt;br&gt;Phone&lt;br&gt;Booking Date&lt;br&gt;No. of People&lt;br&gt;Status&lt;br&gt;Action(&lt;b&gt;APPROVE, DENIED, DELETE&lt;/b&gt;)" style="shape=parallelogram;perimeter=parallelogramPerimeter;whiteSpace=wrap;html=1;fixedSize=1;rounded=0;fillColor=#f8cecc;strokeColor=#b85450;" parent="1" vertex="1">
          <mxGeometry x="410" y="2025" width="200" height="120" as="geometry" />
        </mxCell>
        <mxCell id="-ONpWqrDWP2WbDjyrkQR-41" value="" style="edgeStyle=orthogonalEdgeStyle;rounded=0;orthogonalLoop=1;jettySize=auto;html=1;" parent="1" source="-ONpWqrDWP2WbDjyrkQR-43" target="-ONpWqrDWP2WbDjyrkQR-44" edge="1">
          <mxGeometry relative="1" as="geometry" />
        </mxCell>
        <mxCell id="-ONpWqrDWP2WbDjyrkQR-42" value="" style="edgeStyle=orthogonalEdgeStyle;rounded=0;orthogonalLoop=1;jettySize=auto;html=1;" parent="1" source="-ONpWqrDWP2WbDjyrkQR-43" target="-ONpWqrDWP2WbDjyrkQR-45" edge="1">
          <mxGeometry relative="1" as="geometry" />
        </mxCell>
        <mxCell id="-ONpWqrDWP2WbDjyrkQR-43" value="If &lt;br&gt;Date NOT &lt;br&gt;IN&lt;br&gt;&lt;b&gt;Holiday&lt;br&gt;&amp;nbsp;&amp;nbsp;&lt;/b&gt;AND&lt;br&gt;&amp;nbsp;&amp;nbsp;&lt;b&gt;Events&lt;/b&gt;" style="rhombus;whiteSpace=wrap;html=1;rounded=0;" parent="1" vertex="1">
          <mxGeometry x="-1243.75" y="2375" width="137.5" height="140" as="geometry" />
        </mxCell>
        <mxCell id="-ONpWqrDWP2WbDjyrkQR-44" value="Save Data&lt;br&gt;(Redirect to dashboard)" style="whiteSpace=wrap;html=1;rounded=0;" parent="1" vertex="1">
          <mxGeometry x="-1242.5" y="2580" width="135" height="60" as="geometry" />
        </mxCell>
        <mxCell id="-ONpWqrDWP2WbDjyrkQR-45" value="Change Book Date" style="whiteSpace=wrap;html=1;rounded=0;" parent="1" vertex="1">
          <mxGeometry x="-1420" y="2415" width="120" height="60" as="geometry" />
        </mxCell>
        <mxCell id="-ONpWqrDWP2WbDjyrkQR-46" value="False" style="text;html=1;strokeColor=none;fillColor=none;align=center;verticalAlign=middle;whiteSpace=wrap;rounded=0;" parent="1" vertex="1">
          <mxGeometry x="-1287" y="2420" width="60" height="30" as="geometry" />
        </mxCell>
        <mxCell id="-ONpWqrDWP2WbDjyrkQR-47" value="True" style="text;html=1;strokeColor=none;fillColor=none;align=center;verticalAlign=middle;whiteSpace=wrap;rounded=0;" parent="1" vertex="1">
          <mxGeometry x="-1182.5" y="2520" width="60" height="30" as="geometry" />
        </mxCell>
        <mxCell id="-ONpWqrDWP2WbDjyrkQR-48" value="Calendar" style="shape=table;startSize=30;container=1;collapsible=0;childLayout=tableLayout;strokeColor=default;fontSize=16;" parent="1" vertex="1">
          <mxGeometry x="-985" y="2050" width="180" height="150" as="geometry" />
        </mxCell>
        <mxCell id="-ONpWqrDWP2WbDjyrkQR-49" value="" style="shape=tableRow;horizontal=0;startSize=0;swimlaneHead=0;swimlaneBody=0;strokeColor=inherit;top=0;left=0;bottom=0;right=0;collapsible=0;dropTarget=0;fillColor=none;points=[[0,0.5],[1,0.5]];portConstraint=eastwest;fontSize=16;" parent="-ONpWqrDWP2WbDjyrkQR-48" vertex="1">
          <mxGeometry y="30" width="180" height="40" as="geometry" />
        </mxCell>
        <mxCell id="-ONpWqrDWP2WbDjyrkQR-50" value="holiday" style="shape=partialRectangle;html=1;whiteSpace=wrap;connectable=0;strokeColor=#9673a6;overflow=hidden;fillColor=#e1d5e7;top=0;left=0;bottom=0;right=0;pointerEvents=1;fontSize=16;" parent="-ONpWqrDWP2WbDjyrkQR-49" vertex="1">
          <mxGeometry width="60" height="40" as="geometry">
            <mxRectangle width="60" height="40" as="alternateBounds" />
          </mxGeometry>
        </mxCell>
        <mxCell id="-ONpWqrDWP2WbDjyrkQR-51" value="" style="shape=partialRectangle;html=1;whiteSpace=wrap;connectable=0;strokeColor=inherit;overflow=hidden;fillColor=none;top=0;left=0;bottom=0;right=0;pointerEvents=1;fontSize=16;" parent="-ONpWqrDWP2WbDjyrkQR-49" vertex="1">
          <mxGeometry x="60" width="60" height="40" as="geometry">
            <mxRectangle width="60" height="40" as="alternateBounds" />
          </mxGeometry>
        </mxCell>
        <mxCell id="-ONpWqrDWP2WbDjyrkQR-52" value="" style="shape=partialRectangle;html=1;whiteSpace=wrap;connectable=0;strokeColor=inherit;overflow=hidden;fillColor=none;top=0;left=0;bottom=0;right=0;pointerEvents=1;fontSize=16;" parent="-ONpWqrDWP2WbDjyrkQR-49" vertex="1">
          <mxGeometry x="120" width="60" height="40" as="geometry">
            <mxRectangle width="60" height="40" as="alternateBounds" />
          </mxGeometry>
        </mxCell>
        <mxCell id="-ONpWqrDWP2WbDjyrkQR-53" value="" style="shape=tableRow;horizontal=0;startSize=0;swimlaneHead=0;swimlaneBody=0;strokeColor=inherit;top=0;left=0;bottom=0;right=0;collapsible=0;dropTarget=0;fillColor=none;points=[[0,0.5],[1,0.5]];portConstraint=eastwest;fontSize=16;" parent="-ONpWqrDWP2WbDjyrkQR-48" vertex="1">
          <mxGeometry y="70" width="180" height="40" as="geometry" />
        </mxCell>
        <mxCell id="-ONpWqrDWP2WbDjyrkQR-54" value="" style="shape=partialRectangle;html=1;whiteSpace=wrap;connectable=0;strokeColor=inherit;overflow=hidden;fillColor=none;top=0;left=0;bottom=0;right=0;pointerEvents=1;fontSize=16;" parent="-ONpWqrDWP2WbDjyrkQR-53" vertex="1">
          <mxGeometry width="60" height="40" as="geometry">
            <mxRectangle width="60" height="40" as="alternateBounds" />
          </mxGeometry>
        </mxCell>
        <mxCell id="-ONpWqrDWP2WbDjyrkQR-55" value="" style="shape=partialRectangle;html=1;whiteSpace=wrap;connectable=0;strokeColor=inherit;overflow=hidden;fillColor=none;top=0;left=0;bottom=0;right=0;pointerEvents=1;fontSize=16;" parent="-ONpWqrDWP2WbDjyrkQR-53" vertex="1">
          <mxGeometry x="60" width="60" height="40" as="geometry">
            <mxRectangle width="60" height="40" as="alternateBounds" />
          </mxGeometry>
        </mxCell>
        <mxCell id="-ONpWqrDWP2WbDjyrkQR-56" value="event" style="shape=partialRectangle;html=1;whiteSpace=wrap;connectable=0;strokeColor=#6c8ebf;overflow=hidden;fillColor=#dae8fc;top=0;left=0;bottom=0;right=0;pointerEvents=1;fontSize=16;" parent="-ONpWqrDWP2WbDjyrkQR-53" vertex="1">
          <mxGeometry x="120" width="60" height="40" as="geometry">
            <mxRectangle width="60" height="40" as="alternateBounds" />
          </mxGeometry>
        </mxCell>
        <mxCell id="-ONpWqrDWP2WbDjyrkQR-57" value="" style="shape=tableRow;horizontal=0;startSize=0;swimlaneHead=0;swimlaneBody=0;strokeColor=inherit;top=0;left=0;bottom=0;right=0;collapsible=0;dropTarget=0;fillColor=none;points=[[0,0.5],[1,0.5]];portConstraint=eastwest;fontSize=16;" parent="-ONpWqrDWP2WbDjyrkQR-48" vertex="1">
          <mxGeometry y="110" width="180" height="40" as="geometry" />
        </mxCell>
        <mxCell id="-ONpWqrDWP2WbDjyrkQR-58" value="" style="shape=partialRectangle;html=1;whiteSpace=wrap;connectable=0;strokeColor=inherit;overflow=hidden;fillColor=none;top=0;left=0;bottom=0;right=0;pointerEvents=1;fontSize=16;" parent="-ONpWqrDWP2WbDjyrkQR-57" vertex="1">
          <mxGeometry width="60" height="40" as="geometry">
            <mxRectangle width="60" height="40" as="alternateBounds" />
          </mxGeometry>
        </mxCell>
        <mxCell id="-ONpWqrDWP2WbDjyrkQR-59" value="" style="shape=partialRectangle;html=1;whiteSpace=wrap;connectable=0;strokeColor=inherit;overflow=hidden;fillColor=none;top=0;left=0;bottom=0;right=0;pointerEvents=1;fontSize=16;" parent="-ONpWqrDWP2WbDjyrkQR-57" vertex="1">
          <mxGeometry x="60" width="60" height="40" as="geometry">
            <mxRectangle width="60" height="40" as="alternateBounds" />
          </mxGeometry>
        </mxCell>
        <mxCell id="-ONpWqrDWP2WbDjyrkQR-60" value="" style="shape=partialRectangle;html=1;whiteSpace=wrap;connectable=0;strokeColor=inherit;overflow=hidden;fillColor=none;top=0;left=0;bottom=0;right=0;pointerEvents=1;fontSize=16;" parent="-ONpWqrDWP2WbDjyrkQR-57" vertex="1">
          <mxGeometry x="120" width="60" height="40" as="geometry">
            <mxRectangle width="60" height="40" as="alternateBounds" />
          </mxGeometry>
        </mxCell>
        <mxCell id="-ONpWqrDWP2WbDjyrkQR-61" style="edgeStyle=orthogonalEdgeStyle;rounded=0;orthogonalLoop=1;jettySize=auto;html=1;entryX=0.5;entryY=0;entryDx=0;entryDy=0;" parent="1" source="-ONpWqrDWP2WbDjyrkQR-49" target="-ONpWqrDWP2WbDjyrkQR-75" edge="1">
          <mxGeometry relative="1" as="geometry">
            <mxPoint x="-1010" y="2360" as="targetPoint" />
          </mxGeometry>
        </mxCell>
        <mxCell id="-ONpWqrDWP2WbDjyrkQR-62" style="edgeStyle=orthogonalEdgeStyle;rounded=0;orthogonalLoop=1;jettySize=auto;html=1;entryX=0.5;entryY=0;entryDx=0;entryDy=0;" parent="1" source="-ONpWqrDWP2WbDjyrkQR-53" target="-ONpWqrDWP2WbDjyrkQR-63" edge="1">
          <mxGeometry relative="1" as="geometry">
            <mxPoint x="-780" y="2360" as="targetPoint" />
          </mxGeometry>
        </mxCell>
        <mxCell id="-ONpWqrDWP2WbDjyrkQR-63" value="Username&lt;br&gt;Address&lt;br&gt;Email&lt;br&gt;Phone&lt;br&gt;Booking Status" style="shape=parallelogram;perimeter=parallelogramPerimeter;whiteSpace=wrap;html=1;fixedSize=1;fillColor=#f8cecc;strokeColor=#b85450;" parent="1" vertex="1">
          <mxGeometry x="-850" y="2360" width="140" height="80" as="geometry" />
        </mxCell>
        <mxCell id="-ONpWqrDWP2WbDjyrkQR-64" value="Event Booking Details" style="text;html=1;strokeColor=none;fillColor=none;align=center;verticalAlign=middle;whiteSpace=wrap;rounded=0;" parent="1" vertex="1">
          <mxGeometry x="520" y="2000" width="120" height="30" as="geometry" />
        </mxCell>
        <mxCell id="-ONpWqrDWP2WbDjyrkQR-65" value="User Information" style="text;html=1;strokeColor=none;fillColor=none;align=center;verticalAlign=middle;whiteSpace=wrap;rounded=0;" parent="1" vertex="1">
          <mxGeometry x="-780" y="2330" width="120" height="30" as="geometry" />
        </mxCell>
        <mxCell id="-ONpWqrDWP2WbDjyrkQR-66" value="User Information" style="text;html=1;strokeColor=none;fillColor=none;align=center;verticalAlign=middle;whiteSpace=wrap;rounded=0;" parent="1" vertex="1">
          <mxGeometry x="-191.25" y="2015" width="120" height="30" as="geometry" />
        </mxCell>
        <mxCell id="-ONpWqrDWP2WbDjyrkQR-67" value="Holiday Information" style="text;html=1;strokeColor=none;fillColor=none;align=center;verticalAlign=middle;whiteSpace=wrap;rounded=0;" parent="1" vertex="1">
          <mxGeometry x="258.75" y="1975" width="120" height="30" as="geometry" />
        </mxCell>
        <mxCell id="-ONpWqrDWP2WbDjyrkQR-68" value="" style="edgeStyle=orthogonalEdgeStyle;rounded=0;orthogonalLoop=1;jettySize=auto;html=1;" parent="1" source="-ONpWqrDWP2WbDjyrkQR-70" target="-ONpWqrDWP2WbDjyrkQR-71" edge="1">
          <mxGeometry relative="1" as="geometry" />
        </mxCell>
        <mxCell id="-ONpWqrDWP2WbDjyrkQR-69" value="" style="edgeStyle=orthogonalEdgeStyle;rounded=0;orthogonalLoop=1;jettySize=auto;html=1;" parent="1" source="-ONpWqrDWP2WbDjyrkQR-70" target="-ONpWqrDWP2WbDjyrkQR-72" edge="1">
          <mxGeometry relative="1" as="geometry" />
        </mxCell>
        <mxCell id="-ONpWqrDWP2WbDjyrkQR-70" value="If &lt;br&gt;Date NOT &lt;br&gt;IN&lt;br&gt;&lt;b&gt;Holiday&lt;br&gt;&amp;nbsp;&amp;nbsp;&lt;/b&gt;AND&lt;br&gt;&amp;nbsp;&amp;nbsp;&lt;b&gt;Events&lt;/b&gt;" style="rhombus;whiteSpace=wrap;html=1;rounded=0;" parent="1" vertex="1">
          <mxGeometry x="-57.25" y="2290" width="120" height="110" as="geometry" />
        </mxCell>
        <mxCell id="-ONpWqrDWP2WbDjyrkQR-71" value="Save Data&lt;br&gt;(Redirect to dashboard)" style="whiteSpace=wrap;html=1;rounded=0;" parent="1" vertex="1">
          <mxGeometry x="-64.75" y="2460" width="135" height="60" as="geometry" />
        </mxCell>
        <mxCell id="-ONpWqrDWP2WbDjyrkQR-72" value="Change Book Date" style="whiteSpace=wrap;html=1;rounded=0;" parent="1" vertex="1">
          <mxGeometry x="-240" y="2315" width="120" height="60" as="geometry" />
        </mxCell>
        <mxCell id="-ONpWqrDWP2WbDjyrkQR-73" value="False" style="text;html=1;strokeColor=none;fillColor=none;align=center;verticalAlign=middle;whiteSpace=wrap;rounded=0;" parent="1" vertex="1">
          <mxGeometry x="-106.25" y="2315" width="60" height="30" as="geometry" />
        </mxCell>
        <mxCell id="-ONpWqrDWP2WbDjyrkQR-74" value="True" style="text;html=1;strokeColor=none;fillColor=none;align=center;verticalAlign=middle;whiteSpace=wrap;rounded=0;" parent="1" vertex="1">
          <mxGeometry x="-6.25" y="2415" width="60" height="30" as="geometry" />
        </mxCell>
        <mxCell id="-ONpWqrDWP2WbDjyrkQR-75" value="Holiday Date&lt;br&gt;Holiday Reason" style="shape=parallelogram;perimeter=parallelogramPerimeter;whiteSpace=wrap;html=1;fixedSize=1;rounded=0;fillColor=#f8cecc;strokeColor=#b85450;" parent="1" vertex="1">
          <mxGeometry x="-1072.5" y="2370" width="120" height="60" as="geometry" />
        </mxCell>
        <mxCell id="-ONpWqrDWP2WbDjyrkQR-76" value="Holiday Information" style="text;html=1;strokeColor=none;fillColor=none;align=center;verticalAlign=middle;whiteSpace=wrap;rounded=0;" parent="1" vertex="1">
          <mxGeometry x="-986.5" y="2340" width="120" height="30" as="geometry" />
        </mxCell>
        <mxCell id="-ONpWqrDWP2WbDjyrkQR-77" value="" style="edgeStyle=orthogonalEdgeStyle;rounded=0;orthogonalLoop=1;jettySize=auto;html=1;" parent="1" source="-ONpWqrDWP2WbDjyrkQR-80" target="-ONpWqrDWP2WbDjyrkQR-81" edge="1">
          <mxGeometry relative="1" as="geometry" />
        </mxCell>
        <mxCell id="-ONpWqrDWP2WbDjyrkQR-78" value="" style="edgeStyle=orthogonalEdgeStyle;rounded=0;orthogonalLoop=1;jettySize=auto;html=1;" parent="1" source="-ONpWqrDWP2WbDjyrkQR-80" target="-ONpWqrDWP2WbDjyrkQR-82" edge="1">
          <mxGeometry relative="1" as="geometry" />
        </mxCell>
        <mxCell id="-ONpWqrDWP2WbDjyrkQR-79" value="" style="edgeStyle=orthogonalEdgeStyle;rounded=0;orthogonalLoop=1;jettySize=auto;html=1;" parent="1" source="-ONpWqrDWP2WbDjyrkQR-80" target="-ONpWqrDWP2WbDjyrkQR-84" edge="1">
          <mxGeometry relative="1" as="geometry" />
        </mxCell>
        <mxCell id="-ONpWqrDWP2WbDjyrkQR-80" value="Navigatins" style="rounded=0;whiteSpace=wrap;html=1;" parent="1" vertex="1">
          <mxGeometry x="855" y="1770" width="120" height="60" as="geometry" />
        </mxCell>
        <mxCell id="-ONpWqrDWP2WbDjyrkQR-81" value="Calendat&lt;br style=&quot;border-color: var(--border-color);&quot;&gt;(Redirect to Calendar)" style="rounded=0;whiteSpace=wrap;html=1;" parent="1" vertex="1">
          <mxGeometry x="655" y="1875" width="120" height="60" as="geometry" />
        </mxCell>
        <mxCell id="-ONpWqrDWP2WbDjyrkQR-82" value="Home&lt;br&gt;(Redirect to dahboard" style="rounded=0;whiteSpace=wrap;html=1;" parent="1" vertex="1">
          <mxGeometry x="855" y="1875" width="120" height="60" as="geometry" />
        </mxCell>
        <mxCell id="-ONpWqrDWP2WbDjyrkQR-83" style="edgeStyle=orthogonalEdgeStyle;rounded=0;orthogonalLoop=1;jettySize=auto;html=1;entryX=0.5;entryY=0;entryDx=0;entryDy=0;" parent="1" source="-ONpWqrDWP2WbDjyrkQR-84" target="-ONpWqrDWP2WbDjyrkQR-85" edge="1">
          <mxGeometry relative="1" as="geometry" />
        </mxCell>
        <mxCell id="-ONpWqrDWP2WbDjyrkQR-84" value="Logout" style="rounded=0;whiteSpace=wrap;html=1;" parent="1" vertex="1">
          <mxGeometry x="1055" y="1875" width="120" height="60" as="geometry" />
        </mxCell>
        <mxCell id="-ONpWqrDWP2WbDjyrkQR-85" value="End" style="ellipse;whiteSpace=wrap;html=1;fillColor=#e3c800;strokeColor=#B09500;fontColor=#000000;" parent="1" vertex="1">
          <mxGeometry x="1055" y="2025" width="120" height="80" as="geometry" />
        </mxCell>
        <mxCell id="-ONpWqrDWP2WbDjyrkQR-86" value="" style="edgeStyle=orthogonalEdgeStyle;rounded=0;orthogonalLoop=1;jettySize=auto;html=1;" parent="1" source="-ONpWqrDWP2WbDjyrkQR-87" target="-ONpWqrDWP2WbDjyrkQR-88" edge="1">
          <mxGeometry relative="1" as="geometry" />
        </mxCell>
        <mxCell id="-ONpWqrDWP2WbDjyrkQR-87" value="Login is True?" style="rhombus;whiteSpace=wrap;html=1;" parent="1" vertex="1">
          <mxGeometry x="600" y="1420" width="80" height="80" as="geometry" />
        </mxCell>
        <mxCell id="-ONpWqrDWP2WbDjyrkQR-88" value="Redirect to Index" style="whiteSpace=wrap;html=1;" parent="1" vertex="1">
          <mxGeometry x="420" y="1430" width="120" height="60" as="geometry" />
        </mxCell>
        <mxCell id="-ONpWqrDWP2WbDjyrkQR-89" value="True" style="text;html=1;strokeColor=none;fillColor=none;align=center;verticalAlign=middle;whiteSpace=wrap;rounded=0;" parent="1" vertex="1">
          <mxGeometry x="630" y="1520" width="60" height="30" as="geometry" />
        </mxCell>
        <mxCell id="-ONpWqrDWP2WbDjyrkQR-90" value="False" style="text;html=1;strokeColor=none;fillColor=none;align=center;verticalAlign=middle;whiteSpace=wrap;rounded=0;" parent="1" vertex="1">
          <mxGeometry x="540" y="1440" width="60" height="30" as="geometry" />
        </mxCell>
      </root>
    </mxGraphModel>
  </diagram>
</mxfile>
